<svg width="30" height="26" viewBox="0 0 30 26" fill="none" xmlns="http://www.w3.org/2000/svg">
<path d="M7.87498 0.0785063C6.00021 0.0785063 4.12544 0.835542 2.69748 2.33476C-0.158453 5.33318 -0.155489 10.1514 2.69748 13.153L14.715 25.7998C14.7862 25.8769 14.8872 25.9215 14.994 25.9215C15.0994 25.9215 15.2004 25.8769 15.2731 25.7998C19.284 21.5886 23.2919 17.3759 27.3024 13.1648C30.1583 10.1663 30.1583 5.34512 27.3024 2.34654C24.4465 -0.652044 19.8035 -0.651892 16.9474 2.34654L14.9999 4.37718L13.0524 2.33468C11.6244 0.835466 9.74965 0.0784302 7.87488 0.0784302L7.87498 0.0785063ZM7.87498 0.82665C9.54489 0.82665 11.2193 1.50503 12.5064 2.85729L14.7271 5.19665C14.7983 5.27384 14.8992 5.31837 15.0061 5.31837C15.1115 5.31837 15.2125 5.27384 15.2852 5.19665L17.4939 2.86915C20.0693 0.164614 24.169 0.164614 26.7447 2.86915C29.32 5.57369 29.32 9.93791 26.7447 12.6424C22.8288 16.754 18.9159 20.8686 15.0004 24.9806L3.2561 12.6306C0.683688 9.92309 0.680724 5.56069 3.2561 2.85737C4.54304 1.5051 6.20554 0.826726 7.87538 0.826726L7.87498 0.82665Z" fill="black"/>
</svg>
