<svg width="32" height="32" viewBox="0 0 32 32" fill="none" xmlns="http://www.w3.org/2000/svg">
<path d="M28.2563 15.4568C27.9551 15.4568 27.7126 15.7005 27.7126 16.0005V27.7132H4.28762V4.2882H16.0003C16.3015 4.2882 16.544 4.04445 16.544 3.74446C16.544 3.44321 16.3003 3.20071 16.0003 3.20071H3.74394C3.44269 3.20071 3.2002 3.44446 3.2002 3.74446V28.2571C3.2002 28.5583 3.44395 28.8008 3.74394 28.8008H28.2566C28.5578 28.8008 28.8003 28.5571 28.8003 28.2571V16.0008C28.8003 15.6995 28.5566 15.457 28.2566 15.457L28.2563 15.4568Z" fill="black"/>
<path d="M28.4637 3.24126C28.3962 3.21626 28.3262 3.20001 28.2562 3.20001H20.9026C20.6013 3.20001 20.3589 3.44376 20.3589 3.74376C20.3589 4.04501 20.6026 4.2875 20.9026 4.2875H26.9413L15.6162 15.6161C15.405 15.8274 15.405 16.1724 15.6162 16.3874C15.7212 16.4924 15.8625 16.5474 15.9999 16.5474C16.1374 16.5474 16.2787 16.4924 16.3837 16.3874L27.7123 5.05876V11.0975C27.7123 11.3987 27.9561 11.6412 28.2561 11.6412C28.5573 11.6412 28.7998 11.3975 28.7998 11.0975V3.74388C28.7998 3.67388 28.7836 3.60263 28.7586 3.53638C28.7036 3.40513 28.5948 3.29638 28.4636 3.24138L28.4637 3.24126Z" fill="black"/>
</svg>
